<?xml version="1.0" encoding="utf-8"?>
<!-- Generator: Adobe Illustrator 15.0.0, SVG Export Plug-In . SVG Version: 6.00 Build 0)  -->
<!DOCTYPE svg PUBLIC "-//W3C//DTD SVG 1.1//EN" "http://www.w3.org/Graphics/SVG/1.1/DTD/svg11.dtd">
<svg version="1.1" id="Layer_1" xmlns="http://www.w3.org/2000/svg" xmlns:xlink="http://www.w3.org/1999/xlink" x="0px" y="0px"
	 width="650px" height="161px" viewBox="0 0 650 161" enable-background="new 0 0 650 161" xml:space="preserve">
<g>
	<linearGradient id="SVGID_1_" gradientUnits="userSpaceOnUse" x1="71.5464" y1="45.124" x2="69.5464" y2="79.1245">
		<stop  offset="0" style="stop-color:#1A3561"/>
		<stop  offset="0.54" style="stop-color:#4671A6"/>
		<stop  offset="0.5666" style="stop-color:#446EA3"/>
		<stop  offset="0.5824" style="stop-color:#3F679A"/>
		<stop  offset="0.5953" style="stop-color:#375C8D"/>
		<stop  offset="0.6067" style="stop-color:#2C4D7C"/>
		<stop  offset="0.6169" style="stop-color:#1E3B67"/>
		<stop  offset="0.6196" style="stop-color:#1A3561"/>
	</linearGradient>
	<path fill="url(#SVGID_1_)" d="M112.695,79.731c0,14.859-4.569,26.302-13.706,34.328c-8.71,7.686-20.41,11.529-35.096,11.529
		H28.797V69.1h26.898v34.839c9.991,0,17.676-2.389,23.056-7.172c4.695-4.184,7.045-9.607,7.045-16.268
		c0-6.147-1.709-11.42-5.124-15.818c-3.417-4.397-7.9-6.597-13.45-6.597H28.797V35.668h40.604c14.43,0,25.532,4.611,33.303,13.834
		C109.365,57.444,112.695,67.521,112.695,79.731z"/>
	<linearGradient id="SVGID_2_" gradientUnits="userSpaceOnUse" x1="133.5249" y1="48.77" x2="131.5249" y2="82.7707">
		<stop  offset="0" style="stop-color:#1A3561"/>
		<stop  offset="0.54" style="stop-color:#4671A6"/>
		<stop  offset="0.5666" style="stop-color:#446EA3"/>
		<stop  offset="0.5824" style="stop-color:#3F679A"/>
		<stop  offset="0.5953" style="stop-color:#375C8D"/>
		<stop  offset="0.6067" style="stop-color:#2C4D7C"/>
		<stop  offset="0.6169" style="stop-color:#1E3B67"/>
		<stop  offset="0.6196" style="stop-color:#1A3561"/>
	</linearGradient>
	<path fill="url(#SVGID_2_)" d="M145.229,58.084h-27.155V35.668h27.155V58.084z M145.229,125.588h-27.155V69.484h27.155V125.588z"/>
	<linearGradient id="SVGID_3_" gradientUnits="userSpaceOnUse" x1="183.1558" y1="51.6895" x2="181.1558" y2="85.6899">
		<stop  offset="0" style="stop-color:#1A3561"/>
		<stop  offset="0.54" style="stop-color:#4671A6"/>
		<stop  offset="0.5666" style="stop-color:#446EA3"/>
		<stop  offset="0.5824" style="stop-color:#3F679A"/>
		<stop  offset="0.5953" style="stop-color:#375C8D"/>
		<stop  offset="0.6067" style="stop-color:#2C4D7C"/>
		<stop  offset="0.6169" style="stop-color:#1E3B67"/>
		<stop  offset="0.6196" style="stop-color:#1A3561"/>
	</linearGradient>
	<path fill="url(#SVGID_3_)" d="M209.913,97.664c0,7.857-2.689,14.391-8.069,19.598c-5.722,5.553-13.321,8.326-22.8,8.326h-28.436
		v-22.416h25.361c2.22,0,4.055-0.811,5.508-2.434c1.451-1.621,2.178-3.672,2.178-6.148c0-2.818-2.35-7.385-7.045-13.706
		c-7.429-10.075-11.784-16.096-13.065-18.061c-4.697-7.6-7.044-14.346-7.044-20.238c0-1.108,0.148-2.348,0.448-3.715
		c0.298-1.364,0.532-2.434,0.704-3.202h25.234c-0.428,1.281-0.727,2.286-0.897,3.011c-0.172,0.727-0.256,1.559-0.256,2.497
		c0,4.355,2.434,9.949,7.301,16.78c4.439,6.234,8.922,12.425,13.45,18.572C207.436,84.301,209.913,91.346,209.913,97.664z"/>
	<linearGradient id="SVGID_4_" gradientUnits="userSpaceOnUse" x1="249.8857" y1="55.6152" x2="247.8857" y2="89.6155">
		<stop  offset="0" style="stop-color:#1A3561"/>
		<stop  offset="0.54" style="stop-color:#4671A6"/>
		<stop  offset="0.5666" style="stop-color:#446EA3"/>
		<stop  offset="0.5824" style="stop-color:#3F679A"/>
		<stop  offset="0.5953" style="stop-color:#375C8D"/>
		<stop  offset="0.6067" style="stop-color:#2C4D7C"/>
		<stop  offset="0.6169" style="stop-color:#1E3B67"/>
		<stop  offset="0.6196" style="stop-color:#1A3561"/>
	</linearGradient>
	<path fill="url(#SVGID_4_)" d="M285.229,63.592c0,10.333-3.247,17.72-9.735,22.16c-5.296,3.672-13.065,5.508-23.312,5.508h-10.247
		v34.328h-26.771V69.484h36.761c1.707,0,3.03-0.554,3.971-1.665c0.939-1.108,1.409-2.434,1.409-3.971
		c0-1.621-0.448-2.988-1.345-4.099c-0.896-1.108-2.157-1.665-3.778-1.665h-37.018V35.668h37.018c11.442,0,19.598,1.794,24.465,5.38
		C282.367,45.234,285.229,52.749,285.229,63.592z"/>
	<linearGradient id="SVGID_5_" gradientUnits="userSpaceOnUse" x1="337.9678" y1="60.7959" x2="335.9678" y2="94.7964">
		<stop  offset="0" style="stop-color:#1A3561"/>
		<stop  offset="0.54" style="stop-color:#4671A6"/>
		<stop  offset="0.5666" style="stop-color:#446EA3"/>
		<stop  offset="0.5824" style="stop-color:#3F679A"/>
		<stop  offset="0.5953" style="stop-color:#375C8D"/>
		<stop  offset="0.6067" style="stop-color:#2C4D7C"/>
		<stop  offset="0.6169" style="stop-color:#1E3B67"/>
		<stop  offset="0.6196" style="stop-color:#1A3561"/>
	</linearGradient>
	<path fill="url(#SVGID_5_)" d="M377.965,125.588h-87.613l17.42-56.104h22.543l-8.966,35.225h23.569l-25.49-69.041h28.691
		L377.965,125.588z"/>
	<linearGradient id="SVGID_6_" gradientUnits="userSpaceOnUse" x1="417.6406" y1="65.4819" x2="415.6406" y2="99.4826">
		<stop  offset="0" style="stop-color:#1A3561"/>
		<stop  offset="0.54" style="stop-color:#4671A6"/>
		<stop  offset="0.5666" style="stop-color:#446EA3"/>
		<stop  offset="0.5824" style="stop-color:#3F679A"/>
		<stop  offset="0.5953" style="stop-color:#375C8D"/>
		<stop  offset="0.6067" style="stop-color:#2C4D7C"/>
		<stop  offset="0.6169" style="stop-color:#1E3B67"/>
		<stop  offset="0.6196" style="stop-color:#1A3561"/>
	</linearGradient>
	<path fill="url(#SVGID_6_)" d="M454.047,60.774c0,5.979-1.75,11.016-5.25,15.115c-3.844,4.44-9.012,6.66-15.5,6.66
		c3.5,0.342,6.598,1.281,9.287,2.818s4.035,3.715,4.035,6.533v33.688h-26.898v-23.953c0-4.1-0.77-6.83-2.307-8.197
		c-1.111-1.025-3.031-1.537-5.764-1.537h-1.922h-26.514V69.484h36.506c1.621,0,2.881-0.532,3.777-1.601
		c0.896-1.067,1.346-2.412,1.346-4.035c0-1.621-0.428-2.988-1.281-4.099c-0.855-1.108-2.135-1.665-3.842-1.665h-36.506V35.668
		h45.984c7.77,0,13.961,2.606,18.572,7.813C451.955,48.265,454.047,54.03,454.047,60.774z"/>
	<linearGradient id="SVGID_7_" gradientUnits="userSpaceOnUse" x1="493.4746" y1="69.9434" x2="491.4746" y2="103.9438">
		<stop  offset="0" style="stop-color:#1A3561"/>
		<stop  offset="0.54" style="stop-color:#4671A6"/>
		<stop  offset="0.5666" style="stop-color:#446EA3"/>
		<stop  offset="0.5824" style="stop-color:#3F679A"/>
		<stop  offset="0.5953" style="stop-color:#375C8D"/>
		<stop  offset="0.6067" style="stop-color:#2C4D7C"/>
		<stop  offset="0.6169" style="stop-color:#1E3B67"/>
		<stop  offset="0.6196" style="stop-color:#1A3561"/>
	</linearGradient>
	<path fill="url(#SVGID_7_)" d="M523.855,125.588h-22.801c-14.346,0-25.318-5.422-32.918-16.268
		c-5.893-8.455-8.838-18.061-8.838-28.821c0-13.234,4.418-24.017,13.258-32.342c8.838-8.326,20.6-12.489,35.287-12.489h16.012
		v22.929h-6.02c-8.199,0-14.859,1.494-19.982,4.482c-6.32,3.673-9.479,9.309-9.479,16.908c0,8.709,2.902,14.944,8.709,18.702
		c4.611,2.988,11.443,4.482,20.494,4.482h6.277V125.588z"/>
	<linearGradient id="SVGID_8_" gradientUnits="userSpaceOnUse" x1="575.4248" y1="74.7637" x2="573.4248" y2="108.7638">
		<stop  offset="0" style="stop-color:#1A3561"/>
		<stop  offset="0.54" style="stop-color:#4671A6"/>
		<stop  offset="0.5666" style="stop-color:#446EA3"/>
		<stop  offset="0.5824" style="stop-color:#3F679A"/>
		<stop  offset="0.5953" style="stop-color:#375C8D"/>
		<stop  offset="0.6067" style="stop-color:#2C4D7C"/>
		<stop  offset="0.6169" style="stop-color:#1E3B67"/>
		<stop  offset="0.6196" style="stop-color:#1A3561"/>
	</linearGradient>
	<path fill="url(#SVGID_8_)" d="M621.203,80.436c0,12.962-4.506,24.113-13.514,33.451c-9.012,9.34-19.791,14.006-32.344,14.006
		c-12.809,0-23.74-4.646-32.789-13.941c-9.053-9.295-13.578-20.467-13.578-33.515c0-12.961,4.525-24.091,13.578-33.386
		c9.049-9.294,19.98-13.943,32.789-13.943c12.467,0,23.227,4.649,32.279,13.943C616.676,56.345,621.203,67.475,621.203,80.436z
		 M594.303,80.5c0-5.55-1.855-10.267-5.57-14.153c-3.715-3.885-8.178-5.828-13.387-5.828c-5.465,0-10.098,1.943-13.896,5.828
		c-3.801,3.887-5.701,8.604-5.701,14.153c0,5.637,1.922,10.42,5.766,14.346c3.842,3.93,8.453,5.893,13.832,5.893
		c5.209,0,9.672-1.941,13.387-5.828C592.447,91.025,594.303,86.223,594.303,80.5z"/>
</g>
</svg>
